<?xml version="1.0" encoding="UTF-8"?>
<svg width="26px" height="26px" viewBox="0 0 26 26" version="1.1" xmlns="http://www.w3.org/2000/svg" xmlns:xlink="http://www.w3.org/1999/xlink">
    <!-- Generator: Sketch 53.2 (72643) - https://sketchapp.com -->
    <title>Compass-icon</title>
    <desc>Created with Sketch.</desc>
    <g id="Page-2" stroke="none" stroke-width="1" fill="none" fill-rule="evenodd">
        <g id="Homepage" transform="translate(-124.000000, -81.000000)" fill="#676464">
            <g id="Group-2" transform="translate(117.000000, 82.000000)">
                <g id="Compass-icon" transform="translate(8.000000, 0.000000)">
                    <path d="M20.4853806,3.51461941 C18.2188457,1.24834367 15.2053521,0 12,0 C8.79464792,0 5.78121912,1.24834367 3.51461941,3.51461941 C1.24834367,5.78121912 0,8.79464792 0,12 C0,15.2053521 1.24834367,18.2188457 3.51461941,20.4853806 C5.78121912,22.7519803 8.79464792,24 12,24 C15.2053521,24 18.2188457,22.7519803 20.4853806,20.4853806 C22.7519803,18.2188457 24,15.2053521 24,12 C24,8.79464792 22.7519803,5.78121912 20.4853806,3.51461941 L20.4853806,3.51461941 Z M19.9356584,19.9356584 C17.8158845,22.0551731 14.9978132,23.222458 12,23.222458 C9.00251081,23.222458 6.18411546,22.0551731 4.06460078,19.9356584 C1.94489171,17.8158845 0.777541995,14.9978132 0.777541995,12 C0.777541995,9.00251081 1.94489171,6.18411546 4.06460078,4.06460078 C6.18411546,1.94489171 9.00251081,0.777541995 12,0.777541995 C14.9978132,0.777541995 17.8158845,1.94489171 19.9356584,4.06460078 C22.0551731,6.18411546 23.222458,9.00251081 23.222458,12 C23.222458,14.9978132 22.0551731,17.8158845 19.9356584,19.9356584 L19.9356584,19.9356584 Z" id="Fill-1" stroke="#676464" stroke-width="0.3"></path>
                    <path d="M11.9998434,2 C6.485791,2 2,6.485791 2,11.9998434 C2,17.5138957 6.485791,22 11.9998434,22 C17.5138957,22 22,17.5138957 22,11.9998434 C22,6.485791 17.5138957,2 11.9998434,2 L11.9998434,2 Z M12.3757844,21.2397846 L12.3757844,19.6190402 C12.3757844,19.4114581 12.2074255,19.2430991 11.9998434,19.2430991 C11.7923239,19.2430991 11.6239023,19.4114581 11.6239023,19.6190402 L11.6239023,21.2397846 C6.82282213,21.0469268 2.9530105,17.1768646 2.75990213,12.3757844 L4.38095984,12.3757844 C4.58847929,12.3757844 4.75690087,12.2074255 4.75690087,11.9998434 C4.75690087,11.7923239 4.58847929,11.6239023 4.38095984,11.6239023 L2.75990213,11.6239023 C2.9530105,6.82282213 6.82282213,2.95307316 11.6239023,2.75990213 L11.6239023,4.38095984 C11.6239023,4.58847929 11.7923239,4.75690087 11.9998434,4.75690087 C12.2074255,4.75690087 12.3757844,4.58847929 12.3757844,4.38095984 L12.3757844,2.75990213 C17.1768646,2.95307316 21.0469268,6.82282213 21.2397846,11.6239023 L19.6190402,11.6239023 C19.4114581,11.6239023 19.2430991,11.7923239 19.2430991,11.9998434 C19.2430991,12.2074255 19.4114581,12.3757844 19.6190402,12.3757844 L21.2397846,12.3757844 C21.0469268,17.1768646 17.1768646,21.0469268 12.3757844,21.2397846 L12.3757844,21.2397846 Z" id="Fill-2" stroke="#676464" stroke-width="0.3"></path>
                    <path d="M16.4799059,6.031895 L9.37663447,9.18904345 C9.29302522,9.22610077 9.22606383,9.29306293 9.18900693,9.37667313 L6.03189463,16.4800259 C5.96974263,16.6196846 6.00007872,16.7835137 6.10847478,16.8916644 C6.17925901,16.962696 6.27390517,17 6.37003114,17 C6.42083794,17 6.47189138,16.9896412 6.52035515,16.9682454 L13.62338,13.8113436 C13.7069276,13.773978 13.7738889,13.7072624 13.8112541,13.6234673 L16.9681198,6.5203611 C17.0302718,6.38039417 16.9998741,6.21662669 16.8915397,6.10847603 C16.7833902,6.00007873 16.619563,5.96974228 16.4799059,6.031895 L16.4799059,6.031895 Z M9.64639144,10.1695519 L10.1716622,10.6948904 C10.028614,10.9299362 9.94623788,11.2054922 9.94623788,11.5000394 C9.94623788,12.3567973 10.6432899,13.0537957 11.4999764,13.0537957 C11.7945818,13.0537957 12.0703197,12.9714803 12.3054245,12.8286154 L12.8306952,13.3539538 L7.09883741,15.9014754 L9.64639144,10.1695519 Z M11.4999764,12.3138823 C11.0512858,12.3138823 10.6861427,11.9487968 10.6861427,11.5000394 C10.6861427,11.0513436 11.0512858,10.6861964 11.4999764,10.6861964 C11.9487287,10.6861964 12.3138101,11.0513436 12.3138101,11.5000394 C12.3138101,11.9487968 11.9487287,12.3138823 11.4999764,12.3138823 L11.4999764,12.3138823 Z M13.3538696,12.8307735 L12.8285372,12.3054967 C12.9713388,12.0703892 13.0537149,11.7946482 13.0537149,11.5000394 C13.0537149,10.6433431 12.3567245,9.94628306 11.4999764,9.94628306 C11.2054326,9.94628306 10.9298797,10.0286601 10.6948366,10.17171 L10.1695042,9.64643319 L15.901362,7.09885 L13.3538696,12.8307735 Z" id="Fill-3"></path>
                </g>
            </g>
        </g>
    </g>
</svg>