<?xml version="1.0" encoding="UTF-8"?>
<svg width="24px" height="23px" viewBox="0 0 24 23" version="1.1" xmlns="http://www.w3.org/2000/svg" xmlns:xlink="http://www.w3.org/1999/xlink">
    <!-- Generator: Sketch 53.2 (72643) - https://sketchapp.com -->
    <title>Home-icon</title>
    <desc>Created with Sketch.</desc>
    <defs>
        <polygon id="path-1" points="11.9266543 0.24 0 0.24 0 22.667 23.8533086 22.667 23.8533086 0.24 11.9266543 0.24"></polygon>
    </defs>
    <g id="Page-2" stroke="none" stroke-width="1" fill="none" fill-rule="evenodd">
        <g id="Discover-Talent" transform="translate(-32.000000, -81.000000)">
            <g id="Group-2" transform="translate(29.000000, 81.000000)">
                <g id="Home-icon" transform="translate(3.000000, 0.000000)">
                    <mask id="mask-2" fill="white">
                        <use xlink:href="#path-1"></use>
                    </mask>
                    <g id="Clip-2"></g>
                    <path d="M19.9206667,11.2296667 C19.534,11.2296667 19.2343333,11.5276667 19.2343333,11.917 L19.2343333,21.3143333 L14.3593333,21.3143333 L14.3593333,17.477 C14.3593333,17.1176667 14.0586667,16.8026667 13.6966667,16.8026667 L10.172,16.8026667 C9.784,16.8026667 9.47133333,17.1176667 9.47133333,17.477 L9.47133333,21.3143333 L4.608,21.3143333 L4.608,12.2296667 C4.608,11.8663333 4.30866667,11.5656667 3.92066667,11.5656667 C3.55866667,11.5656667 3.259,11.8663333 3.259,12.2296667 L3.259,22.003 C3.259,22.365 3.55866667,22.667 3.92066667,22.667 L10.172,22.667 C10.534,22.667 10.8333333,22.365 10.8333333,22.003 L10.8333333,18.1656667 L13.009,18.1656667 L13.009,22.003 C13.009,22.365 13.3086667,22.667 13.6966667,22.667 L19.9206667,22.667 C20.284,22.667 20.5833333,22.365 20.5833333,22.003 L20.5833333,11.917 C20.5833333,11.5276667 20.284,11.2296667 19.9206667,11.2296667 L19.9206667,11.2296667 Z" id="Fill-1" fill="#676464" mask="url(#mask-2)"></path>
                    <path d="M18.2343333,6.31666667 L18.2343333,2.60333333 C18.2343333,2.21666667 17.9206667,1.917 17.534,1.917 C17.1706667,1.917 16.871,2.21666667 16.871,2.60333333 L16.871,4.955 L12.396,0.453666667 C12.259,0.314333333 12.0963333,0.24 11.9336667,0.24 C11.746,0.24 11.5833333,0.316666667 11.4466667,0.453666667 L0.208333333,11.6906667 C-0.0613333333,11.96 -0.078,12.3923333 0.208333333,12.6396667 C0.458333333,12.9276667 0.889333333,12.9093333 1.159,12.6396667 L11.9336667,1.891 L22.6836667,12.7413333 C22.7956667,12.8533333 22.9583333,12.917 23.1706667,12.917 C23.358,12.917 23.5206667,12.8533333 23.659,12.7413333 C23.909,12.4913333 23.927,12.037 23.659,11.7646667 L18.2343333,6.31666667 Z" id="Fill-3" fill="#676464" mask="url(#mask-2)"></path>
                </g>
            </g>
        </g>
    </g>
</svg>