<?xml version="1.0" encoding="UTF-8"?>
<svg width="22px" height="23px" viewBox="0 0 22 23" version="1.1" xmlns="http://www.w3.org/2000/svg" xmlns:xlink="http://www.w3.org/1999/xlink">
    <!-- Generator: Sketch 53.2 (72643) - https://sketchapp.com -->
    <title>user-outline</title>
    <desc>Created with Sketch.</desc>
    <g id="Page-2" stroke="none" stroke-width="1" fill="none" fill-rule="evenodd">
        <g id="Homepage" transform="translate(-317.000000, -81.000000)" fill="#676464" stroke="#9099A7" stroke-width="0.3">
            <g id="Group-7" transform="translate(313.000000, 82.000000)">
                <path d="M19.540746,12.8869229 C21.2507832,11.5671432 22.3509878,9.51898289 22.3509878,7.21900633 C22.3509878,3.23259902 19.0612339,0 15.0020885,0 C10.9387661,0 7.64984754,3.23259902 7.64984754,7.21900633 C7.64984754,9.51898289 8.74921682,11.5671432 10.459254,12.8869229 C7.39505451,14.4216077 5.23808529,17.4491446 5,21 L6.33828996,21 C6.59558916,17.6738927 8.79516311,14.8891493 11.823441,13.7202953 C12.7858068,14.1747129 13.8626206,14.4380127 15.0020885,14.4380127 C16.1407209,14.4380127 17.2141932,14.1747129 18.176559,13.7202953 C21.2048369,14.8891493 23.4044108,17.6738927 23.6625454,21 L25,21 C24.7619147,17.4491446 22.6049455,14.4216077 19.540746,12.8869229 L19.540746,12.8869229 Z M15.0020885,13.1239747 C11.6797544,13.1239747 8.98479596,10.480314 8.98479596,7.21900633 C8.98479596,3.95687837 11.6797544,1.31403797 15.0020885,1.31403797 C18.3235872,1.31403797 21.0160394,3.95687837 21.0160394,7.21900633 C21.0160394,10.480314 18.3235872,13.1239747 15.0020885,13.1239747 L15.0020885,13.1239747 Z" id="user-outline"></path>
            </g>
        </g>
    </g>
</svg>